<?xml version="1.0" encoding="UTF-8"?>
<svg width="12px" height="12px" viewBox="0 0 12 12" version="1.1" xmlns="http://www.w3.org/2000/svg" xmlns:xlink="http://www.w3.org/1999/xlink">
    <!-- Generator: Sketch 58 (84663) - https://sketch.com -->
    <title>icons/magnify</title>
    <desc>Created with Sketch.</desc>
    <g id="icons/magnify" stroke="none" stroke-width="1" fill="none" fill-rule="evenodd">
        <path d="M5.25,12.5 L5.25,8.5 L5.5,8.5 L5.50024088,7.96908315 C3.52696848,7.72314107 2,6.03989183 2,4 C2,1.790861 3.790861,0 6,0 C8.209139,0 10,1.790861 10,4 C10,6.03954853 8.47354544,7.7225745 6.50075535,7.96895886 L6.5,8.5 L6.75,8.5 L6.75,12.5 L5.25,12.5 Z M6,1 C4.34314575,1 3,2.34314575 3,4 C3,5.65685425 4.34314575,7 6,7 C7.65685425,7 9,5.65685425 9,4 C9,2.34314575 7.65685425,1 6,1 Z" id="Shape" fill="#4D4D4D" fill-rule="nonzero" transform="translate(6.000000, 6.250000) rotate(-30.000000) translate(-6.000000, -6.250000) "></path>
    </g>
</svg>