<?xml version="1.0" encoding="UTF-8"?>
<svg width="278px" height="74px" viewBox="0 0 278 74" version="1.1" xmlns="http://www.w3.org/2000/svg" xmlns:xlink="http://www.w3.org/1999/xlink">
    <!-- Generator: Sketch 58 (84663) - https://sketch.com -->
    <title>logos/oelatam-hor-color</title>
    <desc>Created with Sketch.</desc>
    <defs>
        <polygon id="path-1" points="0 74 289.175 74 289.175 0.796 0 0.796"></polygon>
        <path d="M2.277,0.966 C1.527,0.966 0.919,1.572 0.919,2.322 L0.919,2.322 L0.919,72.475 C0.919,73.223 1.527,73.831 2.277,73.831 L2.277,73.831 L72.258,73.831 C73.007,73.831 73.614,73.223 73.614,72.475 L73.614,72.475 L73.614,2.322 C73.614,1.572 73.007,0.966 72.258,0.966 L72.258,0.966" id="path-3"></path>
        <path d="M2.277,0.966 C1.527,0.966 0.919,1.572 0.919,2.322 L0.919,2.322 L0.919,72.475 C0.919,73.223 1.527,73.831 2.277,73.831 L2.277,73.831 L72.258,73.831 C73.007,73.831 73.614,73.223 73.614,72.475 L73.614,72.475 L73.614,2.322 C73.614,1.572 73.007,0.966 72.258,0.966 L72.258,0.966 L2.277,0.966 Z" id="path-5"></path>
        <path d="M2.277,0.966 C1.527,0.966 0.919,1.572 0.919,2.322 L0.919,2.322 L0.919,72.475 C0.919,73.223 1.527,73.831 2.277,73.831 L2.277,73.831 L72.258,73.831 C73.007,73.831 73.614,73.223 73.614,72.475 L73.614,72.475 L73.614,2.322 C73.614,1.572 73.007,0.966 72.258,0.966 L72.258,0.966 L2.277,0.966 Z" id="path-7"></path>
        <path d="M2.277,0.966 C1.527,0.966 0.919,1.572 0.919,2.322 L0.919,2.322 L0.919,72.475 C0.919,73.223 1.527,73.831 2.277,73.831 L2.277,73.831 L72.258,73.831 C73.007,73.831 73.614,73.223 73.614,72.475 L73.614,72.475 L73.614,2.322 C73.614,1.572 73.007,0.966 72.258,0.966 L72.258,0.966 L2.277,0.966 Z" id="path-9"></path>
        <path d="M2.277,0.966 C1.527,0.966 0.919,1.572 0.919,2.322 L0.919,2.322 L0.919,72.475 C0.919,73.223 1.527,73.831 2.277,73.831 L2.277,73.831 L72.258,73.831 C73.007,73.831 73.614,73.223 73.614,72.475 L73.614,72.475 L73.614,2.322 C73.614,1.572 73.007,0.966 72.258,0.966 L72.258,0.966" id="path-11"></path>
    </defs>
    <g id="Brand" stroke="none" stroke-width="1" fill="none" fill-rule="evenodd">
        <g id="oeg_desktop" transform="translate(-33.000000, -663.000000)">
            <g id="logos/oelatam-hor-color" transform="translate(33.000000, 662.000000)">
                <g id="Group-69" transform="translate(-12.000000, 0.000000)">
                    <g id="Group-52" transform="translate(0.000000, 0.204100)">
                        <path d="M100.6585,19.7633 C101.7545,20.9413 103.1385,21.5293 104.8115,21.5293 C106.4845,21.5293 107.8605,20.9493 108.9405,19.7873 C110.0205,18.6263 110.5605,17.2013 110.5605,15.5123 L110.5605,15.4633 C110.5605,13.7743 110.0125,12.3413 108.9165,11.1633 C107.8205,9.9863 106.4355,9.3973 104.7625,9.3973 C103.0905,9.3973 101.7145,9.9783 100.6345,11.1393 C99.5545,12.3003 99.0135,13.7263 99.0135,15.4143 L99.0135,15.4633 C99.0135,17.1533 99.5615,18.5853 100.6585,19.7633 M111.1705,21.7003 C109.4805,23.4213 107.3455,24.2823 104.7625,24.2823 C102.1805,24.2823 100.0535,23.4293 98.3805,21.7243 C96.7075,20.0193 95.8715,17.9483 95.8715,15.5123 L95.8715,15.4633 C95.8715,13.0273 96.7155,10.9493 98.4045,9.2273 C100.0945,7.5053 102.2295,6.6443 104.8115,6.6443 C107.3935,6.6443 109.5215,7.4973 111.1945,9.2023 C112.8675,10.9083 113.7035,12.9783 113.7035,15.4143 L113.7035,15.4633 C113.7035,17.8993 112.8585,19.9783 111.1705,21.7003" id="Fill-1" fill="#000000"></path>
                        <polygon id="Fill-3" fill="#000000" points="118.1126 23.9899 118.1126 6.9369 130.7566 6.9369 130.7566 9.6169 121.1096 9.6169 121.1096 14.0509 129.6606 14.0509 129.6606 16.7299 121.1096 16.7299 121.1096 21.3099 130.8786 21.3099 130.8786 23.9899"></polygon>
                        <polygon id="Fill-5" fill="#000000" points="136.3119 23.9899 136.3119 6.9369 141.0379 6.9369 141.0379 19.8479 149.2959 19.8479 149.2959 23.9899"></polygon>
                        <path d="M158.2611,17.2662 L162.0851,17.2662 L160.1861,12.4182 L158.2611,17.2662 Z M150.6851,23.9902 L157.9451,6.8152 L162.5001,6.8152 L169.7591,23.9902 L164.6931,23.9902 L163.4491,20.9452 L156.8721,20.9452 L155.6551,23.9902 L150.6851,23.9902 Z" id="Fill-7" fill="#000000"></path>
                        <polygon id="Fill-9" fill="#000000" points="175.0941 23.9899 175.0941 11.0789 169.9791 11.0789 169.9791 6.9369 184.9371 6.9369 184.9371 11.0789 179.8211 11.0789 179.8211 23.9899"></polygon>
                        <path d="M192.7328,17.2662 L196.5568,17.2662 L194.6578,12.4182 L192.7328,17.2662 Z M185.1568,23.9902 L192.4168,6.8152 L196.9718,6.8152 L204.2308,23.9902 L199.1648,23.9902 L197.9208,20.9452 L191.3438,20.9452 L190.1268,23.9902 L185.1568,23.9902 Z" id="Fill-11" fill="#000000"></path>
                        <polygon id="Fill-13" fill="#000000" points="206.638 23.9899 206.638 6.9369 211.632 6.9369 215.701 13.5389 219.769 6.9369 224.763 6.9369 224.763 23.9899 220.061 23.9899 220.061 14.1969 215.701 20.8719 215.603 20.8719 211.266 14.2459 211.266 23.9899"></polygon>
                        <polygon id="Fill-15" fill="#000000" points="97.7523 45.9205 97.7523 33.3025 99.8073 33.3025 106.5663 42.0265 106.5663 33.3025 108.7483 33.3025 108.7483 45.9205 106.8923 45.9205 99.9343 36.9435 99.9343 45.9205"></polygon>
                        <path d="M115.2464,42.7926 C116.0584,43.6646 117.0824,44.1006 118.3194,44.1006 C119.5584,44.1006 120.5754,43.6706 121.3754,42.8116 C122.1744,41.9516 122.5734,40.8966 122.5734,39.6476 L122.5734,39.6116 C122.5734,38.3616 122.1684,37.3016 121.3564,36.4306 C120.5464,35.5596 119.5214,35.1226 118.2834,35.1226 C117.0464,35.1226 116.0274,35.5536 115.2284,36.4116 C114.4294,37.2716 114.0294,38.3256 114.0294,39.5756 L114.0294,39.6116 C114.0294,40.8616 114.4344,41.9216 115.2464,42.7926 M123.0244,44.2266 C121.7744,45.4996 120.1944,46.1366 118.2834,46.1366 C116.3734,46.1366 114.7994,45.5056 113.5604,44.2436 C112.3234,42.9816 111.7044,41.4496 111.7044,39.6476 L111.7044,39.6116 C111.7044,37.8096 112.3294,36.2716 113.5794,34.9966 C114.8284,33.7236 116.4094,33.0866 118.3194,33.0866 C120.2304,33.0866 121.8054,33.7176 123.0424,34.9796 C124.2804,36.2406 124.8984,37.7726 124.8984,39.5756 L124.8984,39.6116 C124.8984,41.4136 124.2744,42.9526 123.0244,44.2266" id="Fill-17" fill="#000000"></path>
                        <path d="M130.0365,43.902 L132.5235,43.902 C133.8335,43.902 134.8905,43.506 135.6965,42.712 C136.5015,41.919 136.9035,40.897 136.9035,39.648 L136.9035,39.612 C136.9035,38.362 136.5015,37.335 135.6965,36.529 C134.8905,35.724 133.8335,35.322 132.5235,35.322 L130.0365,35.322 L130.0365,43.902 Z M127.8185,45.921 L127.8185,33.302 L132.5235,33.302 C134.4815,33.302 136.0895,33.901 137.3455,35.096 C138.6005,36.292 139.2285,37.785 139.2285,39.576 L139.2285,39.612 C139.2285,41.414 138.6005,42.917 137.3455,44.118 C136.0895,45.32 134.4815,45.921 132.5235,45.921 L127.8185,45.921 Z" id="Fill-19" fill="#000000"></path>
                        <path d="M145.348,42.7926 C146.16,43.6646 147.184,44.1006 148.421,44.1006 C149.66,44.1006 150.677,43.6706 151.477,42.8116 C152.276,41.9516 152.675,40.8966 152.675,39.6476 L152.675,39.6116 C152.675,38.3616 152.27,37.3016 151.458,36.4306 C150.648,35.5596 149.623,35.1226 148.385,35.1226 C147.148,35.1226 146.129,35.5536 145.33,36.4116 C144.531,37.2716 144.131,38.3256 144.131,39.5756 L144.131,39.6116 C144.131,40.8616 144.536,41.9216 145.348,42.7926 M153.126,44.2266 C151.876,45.4996 150.296,46.1366 148.385,46.1366 C146.475,46.1366 144.901,45.5056 143.662,44.2436 C142.425,42.9816 141.806,41.4496 141.806,39.6476 L141.806,39.6116 C141.806,37.8096 142.431,36.2716 143.681,34.9966 C144.93,33.7236 146.511,33.0866 148.421,33.0866 C150.332,33.0866 151.907,33.7176 153.144,34.9796 C154.382,36.2406 155,37.7726 155,39.5756 L155,39.6116 C155,41.4136 154.376,42.9526 153.126,44.2266" id="Fill-21" fill="#000000"></path>
                        <path d="M166.2122,39.5573 L169.4562,39.5573 C170.2492,39.5573 170.8802,39.3663 171.3492,38.9813 C171.8172,38.5963 172.0522,38.0853 172.0522,37.4493 L172.0522,37.4123 C172.0522,36.7403 171.8232,36.2223 171.3672,35.8623 C170.9102,35.5013 170.2682,35.3223 169.4392,35.3223 L166.2122,35.3223 L166.2122,39.5573 Z M163.9942,45.9203 L163.9942,33.3023 L169.6182,33.3023 C171.1812,33.3023 172.3952,33.7233 173.2602,34.5643 C173.9562,35.2863 174.3052,36.1933 174.3052,37.2863 L174.3052,37.3223 C174.3052,38.3203 174.0352,39.1403 173.4942,39.7833 C172.9532,40.4253 172.2202,40.8793 171.2952,41.1443 L174.7012,45.9203 L172.0882,45.9203 L168.9872,41.5223 L168.9512,41.5223 L166.2122,41.5223 L166.2122,45.9203 L163.9942,45.9203 Z" id="Fill-23" fill="#000000"></path>
                        <polygon id="Fill-25" fill="#000000" points="177.4779 45.9205 177.4779 33.3025 186.8329 33.3025 186.8329 35.2855 179.6959 35.2855 179.6959 38.5665 186.0219 38.5665 186.0219 40.5485 179.6959 40.5485 179.6959 43.9385 186.9229 43.9385 186.9229 45.9205"></polygon>
                        <path d="M195.9896,46.1364 C194.0436,46.1364 192.4666,45.5214 191.2586,44.2894 C190.0506,43.0574 189.4466,41.5104 189.4466,39.6484 L189.4466,39.6124 C189.4466,37.8094 190.0626,36.2714 191.2946,34.9964 C192.5256,33.7234 194.0796,33.0864 195.9536,33.0864 C197.0106,33.0864 197.9126,33.2274 198.6576,33.5094 C199.4026,33.7924 200.1176,34.2224 200.8026,34.7984 L199.3966,36.4754 C198.8676,36.0184 198.3366,35.6794 197.8016,35.4564 C197.2666,35.2344 196.6206,35.1224 195.8636,35.1224 C194.7106,35.1224 193.7396,35.5594 192.9526,36.4304 C192.1656,37.3014 191.7716,38.3504 191.7716,39.5754 L191.7716,39.6124 C191.7716,40.9214 192.1686,41.9994 192.9616,42.8474 C193.7556,43.6944 194.7886,44.1174 196.0616,44.1174 C197.2396,44.1174 198.2556,43.7994 199.1086,43.1624 L199.1086,40.8014 L195.8826,40.8014 L195.8826,38.8724 L201.2536,38.8724 L201.2536,44.1724 C199.7266,45.4824 197.9726,46.1364 195.9896,46.1364" id="Fill-27" fill="#000000"></path>
                        <mask id="mask-2" fill="white">
                            <use xlink:href="#path-1"></use>
                        </mask>
                        <g id="Clip-30"></g>
                        <polygon id="Fill-29" fill="#000000" mask="url(#mask-2)" points="204.714 45.92 206.932 45.92 206.932 33.302 204.714 33.302"></polygon>
                        <path d="M213.7357,42.7926 C214.5477,43.6646 215.5717,44.1006 216.8087,44.1006 C218.0477,44.1006 219.0647,43.6706 219.8647,42.8116 C220.6637,41.9516 221.0627,40.8966 221.0627,39.6476 L221.0627,39.6116 C221.0627,38.3616 220.6577,37.3016 219.8457,36.4306 C219.0357,35.5596 218.0107,35.1226 216.7727,35.1226 C215.5357,35.1226 214.5167,35.5536 213.7177,36.4116 C212.9187,37.2716 212.5187,38.3256 212.5187,39.5756 L212.5187,39.6116 C212.5187,40.8616 212.9237,41.9216 213.7357,42.7926 M221.5137,44.2266 C220.2637,45.4996 218.6837,46.1366 216.7727,46.1366 C214.8627,46.1366 213.2887,45.5056 212.0497,44.2436 C210.8127,42.9816 210.1937,41.4496 210.1937,39.6476 L210.1937,39.6116 C210.1937,37.8096 210.8187,36.2716 212.0687,34.9966 C213.3177,33.7236 214.8987,33.0866 216.8087,33.0866 C218.7197,33.0866 220.2947,33.7176 221.5317,34.9796 C222.7697,36.2406 223.3877,37.7726 223.3877,39.5756 L223.3877,39.6116 C223.3877,41.4136 222.7637,42.9526 221.5137,44.2266" id="Fill-31" fill="#000000" mask="url(#mask-2)"></path>
                        <polygon id="Fill-32" fill="#000000" mask="url(#mask-2)" points="226.5238 45.9205 226.5238 33.3025 228.5788 33.3025 235.3378 42.0265 235.3378 33.3025 237.5198 33.3025 237.5198 45.9205 235.6638 45.9205 228.7058 36.9435 228.7058 45.9205"></polygon>
                        <path d="M244.514,40.9098 L248.859,40.9098 L246.677,35.8618 L244.514,40.9098 Z M240.134,45.9208 L245.686,33.2128 L247.741,33.2128 L253.292,45.9208 L250.95,45.9208 L249.669,42.8748 L243.702,42.8748 L242.405,45.9208 L240.134,45.9208 Z" id="Fill-33" fill="#000000" mask="url(#mask-2)"></path>
                        <polygon id="Fill-34" fill="#000000" mask="url(#mask-2)" points="255.9056 45.9205 255.9056 33.3025 258.1236 33.3025 258.1236 43.9015 264.7566 43.9015 264.7566 45.9205"></polygon>
                        <polygon id="Fill-35" fill="#000000" mask="url(#mask-2)" points="97.7816 67.4938 97.7816 54.8758 99.9996 54.8758 99.9996 65.4748 106.6326 65.4748 106.6326 67.4938"></polygon>
                        <path d="M112.6878,62.483 L117.0328,62.483 L114.8508,57.435 L112.6878,62.483 Z M108.3078,67.494 L113.8598,54.786 L115.9148,54.786 L121.4658,67.494 L119.1238,67.494 L117.8428,64.448 L111.8758,64.448 L110.5788,67.494 L108.3078,67.494 Z" id="Fill-36" fill="#000000" mask="url(#mask-2)"></path>
                        <polygon id="Fill-37" fill="#000000" mask="url(#mask-2)" points="125.5589 67.4938 125.5589 56.9308 121.5569 56.9308 121.5569 54.8758 131.7959 54.8758 131.7959 56.9308 127.7939 56.9308 127.7939 67.4938"></polygon>
                        <polygon id="Fill-38" fill="#000000" mask="url(#mask-2)" points="134.715 67.494 136.933 67.494 136.933 54.876 134.715 54.876"></polygon>
                        <polygon id="Fill-39" fill="#000000" mask="url(#mask-2)" points="140.7542 67.4938 140.7542 54.8758 142.8092 54.8758 149.5682 63.5998 149.5682 54.8758 151.7502 54.8758 151.7502 67.4938 149.8942 67.4938 142.9362 58.5168 142.9362 67.4938"></polygon>
                        <path d="M158.4281,64.3658 C159.2401,65.2378 160.2641,65.6738 161.5011,65.6738 C162.7401,65.6738 163.7571,65.2438 164.5571,64.3848 C165.3561,63.5248 165.7551,62.4698 165.7551,61.2208 L165.7551,61.1848 C165.7551,59.9348 165.3501,58.8748 164.5381,58.0038 C163.7281,57.1328 162.7031,56.6958 161.4651,56.6958 C160.2281,56.6958 159.2091,57.1268 158.4101,57.9848 C157.6111,58.8448 157.2111,59.8988 157.2111,61.1488 L157.2111,61.1848 C157.2111,62.4348 157.6161,63.4948 158.4281,64.3658 M166.2061,65.7998 C164.9561,67.0728 163.3761,67.7098 161.4651,67.7098 C159.5551,67.7098 157.9811,67.0788 156.7421,65.8168 C155.5051,64.5548 154.8861,63.0228 154.8861,61.2208 L154.8861,61.1848 C154.8861,59.3828 155.5111,57.8448 156.7611,56.5698 C158.0101,55.2968 159.5911,54.6598 161.5011,54.6598 C163.4121,54.6598 164.9871,55.2908 166.2241,56.5528 C167.4621,57.8138 168.0801,59.3458 168.0801,61.1488 L168.0801,61.1848 C168.0801,62.9868 167.4561,64.5258 166.2061,65.7998" id="Fill-40" fill="#000000" mask="url(#mask-2)"></path>
                        <path d="M173.7406,62.483 L178.0856,62.483 L175.9036,57.435 L173.7406,62.483 Z M169.3606,67.494 L174.9126,54.786 L176.9676,54.786 L182.5186,67.494 L180.1766,67.494 L178.8956,64.448 L172.9286,64.448 L171.6316,67.494 L169.3606,67.494 Z" id="Fill-41" fill="#000000" mask="url(#mask-2)"></path>
                        <polygon id="Fill-42" fill="#000000" mask="url(#mask-2)" points="185.1322 67.4938 185.1322 54.8758 187.4932 54.8758 191.3332 60.8428 195.1732 54.8758 197.5342 54.8758 197.5342 67.4938 195.3172 67.4938 195.3172 58.4448 191.3332 64.3928 191.2612 64.3928 187.3142 58.4808 187.3142 67.4938"></polygon>
                        <polygon id="Fill-43" fill="#000000" mask="url(#mask-2)" points="201.2298 67.4938 201.2298 54.8758 210.5848 54.8758 210.5848 56.8588 203.4478 56.8588 203.4478 60.1398 209.7738 60.1398 209.7738 62.1218 203.4478 62.1218 203.4478 65.5118 210.6748 65.5118 210.6748 67.4938"></polygon>
                        <path d="M215.9749,61.1305 L219.2189,61.1305 C220.0119,61.1305 220.6429,60.9395 221.1119,60.5545 C221.5799,60.1695 221.8149,59.6585 221.8149,59.0225 L221.8149,58.9855 C221.8149,58.3135 221.5859,57.7955 221.1299,57.4355 C220.6729,57.0745 220.0309,56.8955 219.2019,56.8955 L215.9749,56.8955 L215.9749,61.1305 Z M213.7569,67.4935 L213.7569,54.8755 L219.3809,54.8755 C220.9439,54.8755 222.1579,55.2965 223.0229,56.1375 C223.7189,56.8595 224.0679,57.7665 224.0679,58.8595 L224.0679,58.8955 C224.0679,59.8935 223.7979,60.7135 223.2569,61.3565 C222.7159,61.9985 221.9829,62.4525 221.0579,62.7175 L224.4639,67.4935 L221.8509,67.4935 L218.7499,63.0955 L218.7139,63.0955 L215.9749,63.0955 L215.9749,67.4935 L213.7569,67.4935 Z" id="Fill-44" fill="#000000" mask="url(#mask-2)"></path>
                        <polygon id="Fill-45" fill="#000000" mask="url(#mask-2)" points="227.367 67.494 229.585 67.494 229.585 54.876 227.367 54.876"></polygon>
                        <path d="M239.263,67.7096 C237.437,67.7096 235.91,67.0856 234.685,65.8356 C233.459,64.5856 232.846,63.0476 232.846,61.2216 L232.846,61.1856 C232.846,59.3576 233.459,57.8136 234.685,56.5526 C235.91,55.2906 237.466,54.6596 239.353,54.6596 C240.447,54.6596 241.375,54.8276 242.138,55.1646 C242.902,55.5006 243.619,55.9876 244.292,56.6246 L242.868,58.2646 C241.739,57.2196 240.561,56.6956 239.335,56.6956 C238.146,56.6956 237.155,57.1266 236.361,57.9846 C235.568,58.8446 235.171,59.8986 235.171,61.1486 L235.171,61.1856 C235.171,62.4356 235.568,63.4946 236.361,64.3656 C237.155,65.2376 238.146,65.6736 239.335,65.6736 C240.056,65.6736 240.693,65.5376 241.246,65.2676 C241.798,64.9976 242.369,64.5856 242.958,64.0326 L244.382,65.4756 C243.673,66.2206 242.922,66.7786 242.129,67.1506 C241.336,67.5236 240.381,67.7096 239.263,67.7096" id="Fill-46" fill="#000000" mask="url(#mask-2)"></path>
                        <path d="M250.4564,62.483 L254.8014,62.483 L252.6194,57.435 L250.4564,62.483 Z M246.0764,67.494 L251.6284,54.786 L253.6834,54.786 L259.2344,67.494 L256.8924,67.494 L255.6114,64.448 L249.6444,64.448 L248.3474,67.494 L246.0764,67.494 Z" id="Fill-47" fill="#000000" mask="url(#mask-2)"></path>
                        <polygon id="Fill-48" fill="#000000" mask="url(#mask-2)" points="261.849 67.4938 261.849 54.8758 263.904 54.8758 270.663 63.5998 270.663 54.8758 272.845 54.8758 272.845 67.4938 270.989 67.4938 264.031 58.5168 264.031 67.4938"></polygon>
                        <path d="M279.5228,64.3658 C280.3348,65.2378 281.3588,65.6738 282.5958,65.6738 C283.8348,65.6738 284.8518,65.2438 285.6518,64.3848 C286.4508,63.5248 286.8498,62.4698 286.8498,61.2208 L286.8498,61.1848 C286.8498,59.9348 286.4448,58.8748 285.6328,58.0038 C284.8228,57.1328 283.7978,56.6958 282.5598,56.6958 C281.3228,56.6958 280.3038,57.1268 279.5048,57.9848 C278.7058,58.8448 278.3058,59.8988 278.3058,61.1488 L278.3058,61.1848 C278.3058,62.4348 278.7108,63.4948 279.5228,64.3658 M287.3008,65.7998 C286.0508,67.0728 284.4708,67.7098 282.5598,67.7098 C280.6498,67.7098 279.0758,67.0788 277.8368,65.8168 C276.5998,64.5548 275.9808,63.0228 275.9808,61.2208 L275.9808,61.1848 C275.9808,59.3828 276.6058,57.8448 277.8558,56.5698 C279.1048,55.2968 280.6858,54.6598 282.5958,54.6598 C284.5068,54.6598 286.0818,55.2908 287.3188,56.5528 C288.5568,57.8138 289.1748,59.3458 289.1748,61.1488 L289.1748,61.1848 C289.1748,62.9868 288.5508,64.5258 287.3008,65.7998" id="Fill-49" fill="#000000" mask="url(#mask-2)"></path>
                        <path d="M84.4212,73.9996 L14.1132,73.9996 C13.3602,73.9996 12.7502,73.3906 12.7502,72.6376 L12.7502,2.1586 C12.7502,1.4056 13.3602,0.7956 14.1132,0.7956 L84.4212,0.7956 C85.1732,0.7956 85.7832,1.4056 85.7832,2.1586 L85.7832,72.6376 C85.7832,73.3906 85.1732,73.9996 84.4212,73.9996" id="Fill-50" fill="#E5E5E5" mask="url(#mask-2)"></path>
                        <path d="M84.1947,73.9996 L14.3397,73.9996 C13.4627,73.9996 12.7507,73.2886 12.7507,72.4116 L12.7507,63.7286 L85.7837,63.7286 L85.7837,72.4116 C85.7837,73.2886 85.0727,73.9996 84.1947,73.9996" id="Fill-51" fill="#FB9B1D" mask="url(#mask-2)"></path>
                    </g>
                    <g id="Group-68" transform="translate(12.000000, 0.204100)">
                        <g id="Group-55">
                            <mask id="mask-4" fill="white">
                                <use xlink:href="#path-3"></use>
                            </mask>
                            <g id="Clip-54"></g>
                            <path d="M37.9759,70.3199 C32.4579,70.3199 27.4089,66.6659 23.7569,60.0289 C20.4089,53.9419 18.5649,45.9139 18.5649,37.4229 C18.5649,28.9299 20.4089,20.9019 23.7569,14.8149 C27.4089,8.1779 32.4579,4.5239 37.9759,4.5239 C39.5829,4.5239 40.8909,5.8319 40.8909,7.4379 C40.8909,9.0459 39.5829,10.3529 37.9759,10.3529 C34.6809,10.3529 31.4449,12.9359 28.8649,17.6259 C25.9819,22.8649 24.3939,29.8959 24.3939,37.4229 C24.3939,44.9479 25.9819,51.9779 28.8649,57.2179 C31.4449,61.9079 34.6809,64.4909 37.9759,64.4909 C41.2719,64.4909 44.5069,61.9079 47.0879,57.2179 C49.9709,51.9779 51.5589,44.9479 51.5589,37.4229 C51.5589,35.8149 52.8659,34.5069 54.4729,34.5069 C56.0799,34.5069 57.3879,35.8149 57.3879,37.4229 C57.3879,45.9139 55.5439,53.9419 52.1959,60.0289 C48.5439,66.6659 43.4949,70.3199 37.9759,70.3199" id="Fill-53" fill="#0D6AE5" mask="url(#mask-4)"></path>
                        </g>
                        <g id="Group-58">
                            <mask id="mask-6" fill="white">
                                <use xlink:href="#path-5"></use>
                            </mask>
                            <g id="Clip-57"></g>
                            <path d="M-4.3542,52.3102 C-4.4042,52.2102 -4.3502,52.0892 -4.2432,52.0602 C6.3558,49.1502 17.2988,47.3322 28.2888,46.6602 C31.5248,46.4612 34.8158,46.3612 38.0688,46.3612 C46.3548,46.3612 54.7018,47.0072 62.8778,48.2832 L65.7598,48.7322 L64.8608,54.4962 L61.9788,54.0462 C54.0988,52.8182 46.0538,52.1952 38.0688,52.1952 C34.9338,52.1952 31.7628,52.2912 28.6448,52.4822 C18.4358,53.1082 8.2558,54.7592 -1.6152,57.3922 C-1.7212,57.4212 -1.8332,57.3712 -1.8812,57.2722 L-4.3542,52.3102 Z" id="Fill-56" fill="#0D6AE5" mask="url(#mask-6)"></path>
                        </g>
                        <g id="Group-61">
                            <mask id="mask-8" fill="white">
                                <use xlink:href="#path-7"></use>
                            </mask>
                            <g id="Clip-60"></g>
                            <path d="M-11.9792,40.4537 C-12.0292,40.3647 -11.9862,40.2517 -11.8892,40.2197 C-9.7072,39.5087 -7.4722,38.8337 -5.2312,38.2097 L-5.2322,38.2077 L-4.3212,37.9547 C6.3318,35.0497 17.3298,33.2497 28.3698,32.6037 C31.4288,32.4247 34.5458,32.3337 37.6328,32.3337 C42.0268,32.3337 46.4908,32.5177 50.8998,32.8807 L51.4558,32.9257 C51.8788,32.9597 52.3038,32.9937 52.7268,33.0337 L52.7388,33.0337 C52.7648,33.0337 52.7918,33.0347 52.8188,33.0367 C55.5928,33.2967 58.4618,33.6427 61.3458,34.0687 L63.1098,34.3157 L63.1078,34.3357 C63.7738,34.4407 64.4388,34.5487 65.1038,34.6627 L65.1388,34.6687 C66.1818,34.8487 67.2198,35.0367 68.2248,35.2297 L70.5748,35.5767 C70.7908,35.6077 70.9778,35.8647 70.9418,36.0807 L70.5398,41.5957 L67.1248,40.9587 C66.1468,40.7707 65.1218,40.5857 63.9898,40.3917 L62.0408,40.0827 C61.1288,39.9377 60.1608,39.7957 58.9928,39.6337 C57.9828,39.4957 57.0918,39.3807 56.2708,39.2817 L54.3068,39.0707 C48.8248,38.4807 43.2418,38.1827 37.7138,38.1827 C32.1178,38.1827 26.4728,38.4887 20.9368,39.0937 C10.8128,40.1977 0.7648,42.3187 -8.9342,45.3967 C-9.0522,45.4347 -9.1812,45.3847 -9.2432,45.2757 L-11.9792,40.4537 Z" id="Fill-59" fill="#0D6AE5" mask="url(#mask-8)"></path>
                        </g>
                        <g id="Group-64">
                            <mask id="mask-10" fill="white">
                                <use xlink:href="#path-9"></use>
                            </mask>
                            <g id="Clip-63"></g>
                            <path d="M45.4261,19.5485 C45.4401,19.4285 45.3491,19.3195 45.2281,19.3145 C42.6961,19.1945 40.1441,19.1345 37.6231,19.1345 C34.5221,19.1345 31.3881,19.2265 28.3061,19.4065 C17.3051,20.0505 6.3451,21.8395 -4.2719,24.7275 C-4.3299,24.7425 -4.3589,24.8075 -4.3329,24.8605 L-1.7529,29.9925 C-1.7269,30.0435 -1.6709,30.0695 -1.6159,30.0545 C8.2601,27.4495 18.4421,25.8265 28.6471,25.2305 C31.6131,25.0565 34.6331,24.9685 37.6221,24.9685 C38.9971,24.9685 42.4321,25.0375 44.2621,25.0755 C44.5681,25.0825 44.8241,24.8555 44.8591,24.5515 L45.4261,19.5485 Z" id="Fill-62" fill="#0D6AE5" mask="url(#mask-10)"></path>
                        </g>
                        <g id="Group-67">
                            <mask id="mask-12" fill="white">
                                <use xlink:href="#path-11"></use>
                            </mask>
                            <g id="Clip-66"></g>
                            <path d="M40.6937,70.3727 C30.8447,71.1697 21.4467,67.6967 14.5567,60.8067 C8.3147,54.5647 4.8787,46.2677 4.8787,37.4397 C4.8787,28.6127 8.3147,20.3137 14.5567,14.0727 C20.7977,7.8317 29.0957,4.3937 37.9227,4.3937 C43.5437,4.3937 49.0947,5.8317 53.9777,8.5507 C58.6057,11.1277 62.5867,14.8187 65.5097,19.2417 C65.6157,19.4017 65.5687,19.6197 65.4077,19.7247 L60.9277,22.6167 C60.7637,22.7227 60.5477,22.6757 60.4387,22.5127 C55.4097,14.9377 47.0187,10.4287 37.9227,10.4287 C28.6157,10.4287 20.0277,15.1027 14.8397,23.3427 C13.3417,25.7217 12.2567,28.3407 11.6327,31.0817 C9.4737,40.5777 12.2417,49.9577 18.8227,56.5397 C25.4047,63.1217 34.7857,65.8887 44.2827,63.7287 C47.0237,63.1047 49.6427,62.0197 52.0217,60.5207 C60.2597,55.3337 64.9347,46.7457 64.9347,37.4397 L64.9347,35.6347 L69.3627,35.3977 L70.8357,35.6147 C70.9117,35.6267 70.9677,35.6917 70.9677,35.7687 L70.9677,37.4397 C70.9677,47.1917 66.7717,56.2997 59.2347,62.6997 C54.0237,67.1237 47.5057,69.8207 40.6937,70.3727" id="Fill-65" fill="#0D6AE5" mask="url(#mask-12)"></path>
                        </g>
                    </g>
                </g>
            </g>
        </g>
    </g>
</svg>